<svg xmlns="http://www.w3.org/2000/svg" height="400px" width="400px" viewBox="0 0 400 400">
  <g>
    <path fill="#FAFAFA" d="M86.400 93.605 C 82.684 93.815,80.938 94.096,79.600 94.702 C 78.610 95.150,76.483 95.719,74.874 95.966 C 73.265 96.213,71.555 96.667,71.074 96.974
                            C 70.593 97.281,68.690 97.812,66.844 98.155 C 64.998 98.497,63.198 99.035,62.844 99.351 C 62.490 99.667,61.396 100.140,60.414 100.401 C 59.432
                            100.663,58.208 101.207,57.695 101.611 C 57.182 102.014,56.201 102.468,55.515 102.619 C 54.830 102.769,53.461 103.322,52.475 103.846 C 51.488
                            104.371,50.460 104.800,50.189 104.800 C 49.919 104.800,49.451 105.099,49.149 105.465 C 48.847 105.831,47.790 106.483,46.800 106.914 C 45.810
                            107.346,44.730 107.917,44.400 108.183 C 44.070 108.450,43.170 108.906,42.400 109.196 C 41.630 109.486,40.799 109.968,40.553 110.266 C 39.998
                            110.939,37.796 112.544,36.200 113.438 C 34.208 114.555,27.922 120.169,27.004 121.652 C 26.782 122.010,25.804 123.349,24.832 124.627 C 23.859
                            125.905,22.820 127.439,22.522 128.036 C 22.224 128.633,21.725 129.220,21.414 129.339 C 20.838 129.560,19.200 134.413,19.200 135.897 C 19.200
                            138.007,27.431 138.823,30.758 137.043 C 31.331 136.737,33.510 135.646,35.600 134.619 C 37.690 133.592,39.850 132.505,40.400 132.205 C 42.953
                            130.812,47.927 128.400,48.248 128.400 C 48.445 128.400,49.415 127.976,50.403 127.457 C 51.391 126.939,52.726 126.387,53.368 126.232 C 54.011
                            126.077,54.967 125.612,55.493 125.199 C 56.018 124.785,57.473 124.236,58.724 123.978 C 59.976 123.720,61.457 123.274,62.017 122.987 C 62.576
                            122.700,64.429 122.272,66.135 122.034 C 67.842 121.797,70.036 121.239,71.011 120.795 C 77.122 118.011,107.238 117.991,111.753 120.767 C 112.439
                            121.189,114.148 121.741,115.552 121.994 C 116.955 122.247,118.753 122.802,119.546 123.227 C 120.339 123.652,121.177 124.000,121.408 124.000
                            121.824 124.000,125.466 126.189,127.000 127.361 C 130.781 130.250,135.600 135.226,135.600 136.242 C 135.600 136.488,136.140 137.369,136.800 138.200
                            C 137.460 139.031,138.000 139.893,138.000 140.116 C 138.000 140.340,138.440 141.454,138.979 142.592 C 141.497 147.914,141.499 171.318,138.982
                            178.667 C 138.442 180.244,138.000 181.794,138.000 182.111 138.000 182.429,137.569 183.324,137.041 184.101 C 136.514 184.878,135.953 186.118,135.795
                            186.857 C 135.637 187.596,135.368 188.380,135.196 188.600 C 135.025 188.820,134.484 189.720,133.994 190.600 C 131.887 194.381,123.472 202.800,
                            121.799 202.800 C 121.529 202.800,120.864 203.149,120.322 203.575 C 119.780 204.002,118.811 204.473,118.168 204.623 C 117.526 204.772,116.273
                            205.308,115.385 205.814 C 114.497 206.320,112.652 206.937,111.286 207.184 C 109.920 207.432,108.089 207.886,107.219 208.193 C 106.348 208.500,
                            103.558 208.945,101.019 209.181 C 98.420 209.423,95.560 209.943,94.477 210.370 C 93.419 210.787,91.666 211.261,90.581 211.424 C 84.138 212.390,
                            84.969 221.770,91.704 224.091 C 92.417 224.337,93.450 224.860,94.000 225.253 C 94.560 225.654,96.672 226.236,98.800 226.576 C 100.890 226.910,
                            103.229 227.367,103.997 227.592 C 106.258 228.252,122.479 228.113,124.938 227.413 C 126.072 227.089,128.389 226.658,130.088 226.453 C 131.878
                            226.237,133.726 225.746,134.488 225.284 C 135.209 224.846,136.788 224.280,137.995 224.028 C 139.202 223.775,140.568 223.320,141.031 223.017 C
                            141.494 222.713,142.666 222.254,143.636 221.997 C 144.606 221.739,145.786 221.171,146.257 220.735 C 147.142 219.915,148.789 218.927,151.171 217.787
                            C 152.427 217.185,155.312 214.940,159.400 211.383 C 162.602 208.597,163.567 207.629,165.428 205.336 C 166.471 204.051,168.061 202.100,168.962
                            201.000 C 169.863 199.900,170.780 198.709,171.000 198.354 C 171.220 197.999,172.114 196.649,172.986 195.354 C 173.858 194.059,175.308 191.560,
                            176.208 189.800 C 177.108 188.040,178.239 185.970,178.721 185.200 C 179.203 184.430,179.712 183.170,179.852 182.400 C 179.992 181.630,180.363
                            180.494,180.676 179.875 C 180.990 179.257,181.496 177.367,181.802 175.675 C 182.107 173.984,182.759 171.520,183.250 170.200 C 184.482 166.886,
                            184.615 148.217,183.428 145.200 C 183.039 144.210,182.459 142.230,182.140 140.800 C 181.272 136.908,179.226 131.194,178.372 130.278 C 177.958
                            129.833,177.421 128.869,177.178 128.135 C 176.936 127.401,176.605 126.800,176.443 126.800 C 176.281 126.800,175.833 126.139,175.448 125.332 C
                            174.736 123.840,173.643 122.260,172.200 120.640 C 171.760 120.146,170.690 118.945,169.822 117.971 C 167.097 114.913,161.919 110.408,158.800 108.380
                            C 157.150 107.308,155.537 106.199,155.215 105.915 C 154.470 105.260,148.747 102.416,148.154 102.407 C 147.909 102.403,147.279 102.066,146.754
                            101.658 C 146.229 101.250,145.080 100.690,144.200 100.414 C 143.320 100.137,142.208 99.665,141.729 99.365 C 141.250 99.065,139.230 98.464,137.241
                            98.030 C 135.251 97.596,133.279 97.056,132.858 96.831 C 132.437 96.606,130.767 96.216,129.147 95.965 C 127.526 95.714,125.320 95.162,124.244 94.738
                            C 120.873 93.410,100.613 92.803,86.400 93.605 M271.000 93.971 C 269.240 94.147,267.080 94.500,266.200 94.755 C 265.320 95.010,262.091 95.489,
                            259.025 95.819 C 255.959 96.149,252.719 96.665,251.825 96.967 C 250.931 97.268,248.490 97.727,246.400 97.987 C 244.310 98.246,241.310 98.896,
                            239.733 99.430 C 238.156 99.963,236.533 100.400,236.127 100.400 C 235.721 100.400,234.710 100.763,233.881 101.208 C 233.053 101.652,231.332
                            102.258,230.058 102.556 C 228.784 102.853,227.336 103.313,226.839 103.579 C 226.343 103.844,225.010 104.337,223.878 104.673 C 222.745 105.010,
                            221.398 105.616,220.884 106.020 C 220.370 106.424,219.286 106.967,218.475 107.228 C 217.664 107.488,216.730 107.918,216.400 108.183 C 216.070
                            108.448,214.945 108.980,213.900 109.365 C 212.855 109.751,212.000 110.204,212.000 110.372 C 212.000 110.541,211.280 111.003,210.400 111.400 C
                            209.520 111.797,208.800 112.255,208.800 112.419 C 208.800 112.583,208.044 113.090,207.121 113.547 C 204.906 114.643,198.871 120.052,197.000 122.617
                            C 196.560 123.221,195.803 124.139,195.318 124.657 C 194.286 125.760,191.604 131.253,191.592 132.289 C 191.587 132.680,191.138 134.260,190.593
                            135.800 C 189.443 139.055,189.191 144.823,190.139 146.211 C 190.435 146.645,190.977 147.892,191.342 148.982 C 193.542 155.538,195.897 154.890,
                            206.444 144.829 C 208.290 143.068,210.160 141.290,210.600 140.877 C 211.040 140.465,212.390 139.479,213.600 138.687 C 214.810 137.894,216.340
                            136.815,217.000 136.289 C 218.286 135.263,220.637 133.987,224.800 132.054 C 230.399 129.455,232.172 128.794,234.737 128.349 C 236.202 128.096,
                            238.104 127.641,238.965 127.339 C 240.146 126.924,250.100 125.606,252.091 125.601 C 252.929 125.599,253.619 127.521,253.150 128.551 C 252.887
                            129.128,252.538 129.600,252.376 129.600 C 252.213 129.600,251.857 130.545,251.586 131.700 C 251.314 132.855,250.756 134.468,250.346 135.284 C
                            249.936 136.100,249.600 137.011,249.600 137.307 C 249.600 137.603,248.971 139.096,248.201 140.623 C 247.432 142.150,246.802 143.722,246.801 144.116
                            C 246.801 144.510,246.462 145.500,246.049 146.316 C 245.636 147.132,245.091 148.777,244.838 149.970 C 244.585 151.164,244.043 152.694,243.632
                            153.370 C 243.222 154.047,242.757 155.210,242.599 155.955 C 242.441 156.700,241.884 158.230,241.360 159.355 C 240.836 160.480,240.400 161.850,
                            240.391 162.400 C 240.382 162.950,240.008 164.390,239.561 165.600 C 239.115 166.810,238.508 168.741,238.213 169.891 C 237.918 171.041,237.318
                            172.571,236.880 173.291 C 236.442 174.011,235.955 175.570,235.797 176.756 C 234.887 183.589,233.077 185.769,227.162 187.160 C 223.199 188.091,
                            219.003 189.538,217.600 190.456 C 217.050 190.816,215.970 191.315,215.200 191.564 C 208.872 193.611,200.116 200.657,197.506 205.800 C 196.311
                            208.156,195.816 211.554,196.560 212.290 C 197.196 212.918,215.201 212.559,218.279 211.857 C 223.971 210.558,226.319 211.112,225.606 213.585 C
                            225.387 214.346,225.006 216.506,224.759 218.385 C 224.513 220.263,224.065 222.398,223.764 223.128 C 223.463 223.859,222.954 225.964,222.633 227.806
                            C 222.311 229.648,221.756 231.601,221.399 232.146 C 221.034 232.702,220.497 235.070,220.172 237.550 C 219.854 239.978,219.416 242.432,219.198
                            243.004 C 218.981 243.576,218.524 246.310,218.182 249.081 C 217.841 251.851,217.289 254.767,216.956 255.559 C 216.620 256.358,216.093 259.938,
                            215.771 263.600 C 215.452 267.230,214.989 271.280,214.741 272.600 C 214.066 276.200,214.181 290.265,214.921 294.600 C 215.259 296.580,215.652
                            299.224,215.794 300.476 C 216.095 303.134,217.889 305.769,220.002 306.658 C 223.217 308.009,240.676 306.810,243.715 305.029 C 244.680 304.463,
                            245.724 303.997,246.035 303.993 C 246.346 303.989,247.410 303.456,248.400 302.808 C 254.454 298.849,254.816 297.952,255.229 285.885 C 255.555
                            276.377,255.811 273.400,256.447 271.693 C 256.633 271.194,257.056 268.209,257.387 265.059 C 257.718 261.910,258.239 258.622,258.546 257.752 C
                            258.853 256.882,259.317 253.963,259.578 251.265 C 259.838 248.566,260.316 245.513,260.639 244.479 C 260.963 243.446,261.499 240.982,261.831 239.003
                            C 262.163 237.025,262.712 234.983,263.052 234.465 C 263.391 233.947,263.913 231.778,264.213 229.644 C 264.512 227.510,264.939 225.285,265.162
                            224.700 C 265.385 224.114,265.840 222.073,266.173 220.164 C 266.506 218.254,267.056 216.269,267.395 215.751 C 267.734 215.234,268.269 213.465,
                            268.584 211.820 C 269.236 208.411,269.686 207.396,270.814 206.792 C 272.276 206.010,303.350 206.443,317.427 207.442 C 324.099 207.915,327.252
                            206.272,328.642 201.600 C 329.002 200.390,329.477 199.175,329.697 198.900 C 329.917 198.625,330.351 197.190,330.661 195.711 C 330.971 194.231,
                            331.486 192.623,331.805 192.136 C 333.101 190.158,333.847 182.262,332.852 181.062 C 331.947 179.972,329.332 179.808,294.728 178.670 C 277.579
                            178.106,277.190 178.027,278.762 175.441 C 279.177 174.759,279.645 173.210,279.802 172.000 C 279.960 170.790,280.350 169.170,280.668 168.400 C
                            280.987 167.630,281.504 165.792,281.816 164.315 C 282.128 162.837,282.747 160.950,283.191 160.120 C 283.636 159.291,284.000 158.189,284.000 157.673
                            C 284.000 157.157,284.437 155.444,284.971 153.867 C 285.505 152.290,286.136 149.699,286.373 148.109 C 286.610 146.519,287.138 144.359,287.547
                            143.309 C 287.955 142.259,288.416 140.410,288.571 139.200 C 288.726 137.990,289.206 136.200,289.638 135.223 C 290.070 134.245,290.538 132.093,
                            290.677 130.439 C 291.168 124.639,288.772 124.960,327.600 125.503 C 361.468 125.976,360.473 126.001,365.526 124.560 C 370.507 123.139,374.673
                            119.101,375.388 115.000 C 375.542 114.120,375.989 112.860,376.382 112.200 C 376.775 111.540,377.224 110.460,377.378 109.800 C 377.533 109.140,
                            377.997 108.237,378.411 107.794 C 380.647 105.397,381.597 99.879,380.154 97.674 C 378.839 95.665,379.076 95.702,364.200 95.193 C 357.820 94.974,
                            348.820 94.620,344.200 94.404 C 333.318 93.897,275.171 93.553,271.000 93.971 M75.668 135.199 C 74.055 135.834,72.328 136.769,71.829 137.277 C
                            71.331 137.784,70.221 138.791,69.362 139.513 C 67.386 141.173,67.609 140.938,65.102 144.000 C 62.745 146.878,61.187 149.121,58.889 152.946 C 58.510
                            153.576,57.772 154.742,57.250 155.537 C 56.727 156.332,56.048 157.698,55.739 158.572 C 55.431 159.445,54.936 160.439,54.640 160.780 C 54.344
                            161.121,53.892 162.053,53.636 162.852 C 53.379 163.650,52.834 164.607,52.425 164.978 C 52.015 165.349,51.556 166.307,51.406 167.108 C 51.256
                            167.908,50.813 169.201,50.421 169.981 C 50.029 170.762,49.481 172.120,49.204 173.000 C 48.926 173.880,48.455 174.880,48.158 175.222 C 47.537
                            175.936,45.845 180.670,44.949 184.200 C 44.614 185.520,44.003 187.146,43.591 187.813 C 43.179 188.480,42.643 189.917,42.399 191.006 C 42.154
                            192.096,41.716 193.260,41.425 193.594 C 41.134 193.927,40.681 195.460,40.420 197.000 C 40.159 198.540,39.617 200.544,39.216 201.454 C 38.814
                            202.363,38.359 203.893,38.205 204.854 C 38.050 205.814,37.514 207.320,37.013 208.200 C 36.512 209.080,35.973 210.863,35.815 212.162 C 35.656
                            213.462,35.207 215.532,34.817 216.762 C 34.427 217.993,33.892 220.260,33.629 221.800 C 33.365 223.340,32.874 225.024,32.538 225.543 C 32.201
                            226.061,31.675 228.030,31.370 229.918 C 31.064 231.806,30.554 234.172,30.236 235.176 C 29.918 236.179,29.449 238.887,29.195 241.193 C 28.941
                            243.500,28.472 246.011,28.153 246.774 C 27.834 247.536,27.313 250.509,26.995 253.380 C 26.677 256.251,26.098 259.590,25.708 260.800 C 25.073
                            262.773,25.000 264.879,25.002 281.200 L 25.004 299.400 26.502 302.523 C 28.506 306.698,29.678 307.272,36.124 307.229 C 42.537 307.187,52.387
                            306.136,53.190 305.409 C 53.548 305.085,54.591 304.556,55.510 304.232 C 56.428 303.908,57.856 303.183,58.683 302.621 C 59.509 302.060,60.336
                            301.600,60.520 301.600 C 60.703 301.600,61.502 300.925,62.294 300.100 C 64.959 297.323,65.640 292.735,66.191 273.800 C 66.492 263.498,67.086
                            254.069,67.602 251.400 C 67.815 250.300,68.172 245.610,68.394 240.977 C 68.670 235.242,69.039 231.603,69.552 229.577 C 69.965 227.940,70.521
                            224.712,70.786 222.405 C 71.052 220.097,71.528 217.589,71.845 216.832 C 72.161 216.074,72.675 213.878,72.987 211.953 C 73.298 210.027,73.816
                            207.942,74.138 207.319 C 74.460 206.696,74.932 204.390,75.185 202.193 C 75.439 199.997,75.983 196.940,76.394 195.400 C 76.805 193.860,77.262
                            191.430,77.410 190.000 C 77.557 188.570,78.034 186.590,78.469 185.600 C 78.963 184.477,79.474 181.794,79.829 178.463 C 80.142 175.528,80.480
                            172.994,80.580 172.832 C 81.123 171.955,81.879 164.194,83.020 147.800 C 83.431 141.893,81.949 134.400,80.369 134.400 C 79.982 134.400,79.426
                            134.320,79.133 134.223 C 78.840 134.125,77.280 134.565,75.668 135.199"/>

    <path fill="#3F51B5" d="M23.600 0.600 C 23.600 1.031,23.159 1.200,22.033 1.200 C 19.949 1.200,19.200 1.529,19.200 2.443 C 19.200 2.961,18.916 3.200,18.300 3.201 C 17.276
                            3.203,14.800 4.594,14.800 5.168 C 14.800 5.376,14.305 5.604,13.700 5.673 C 12.843 5.772,12.573 6.038,12.476 6.876 C 12.380 7.707,12.107 7.980,
                            11.276 8.076 C 10.523 8.163,10.163 8.463,10.075 9.075 C 9.998 9.621,9.621 9.998,9.075 10.075 C 8.463 10.163,8.163 10.523,8.076 11.276 C 7.980
                            12.107,7.707 12.380,6.876 12.476 C 6.038 12.573,5.772 12.843,5.673 13.700 C 5.604 14.305,5.376 14.800,5.168 14.800 C 4.594 14.800,3.203 17.276,
                            3.201 18.300 C 3.200 18.916,2.961 19.200,2.443 19.200 C 1.529 19.200,1.200 19.949,1.200 22.033 C 1.200 23.159,1.031 23.600,0.600 23.600 C 0.068
                            23.600,0.000 43.467,0.000 200.000 C 0.000 356.533,0.068 376.400,0.600 376.400 C 1.031 376.400,1.200 376.841,1.200 377.967 C 1.200 380.051,1.529
                            380.800,2.443 380.800 C 2.961 380.800,3.200 381.084,3.201 381.700 C 3.203 382.724,4.594 385.200,5.168 385.200 C 5.376 385.200,5.604 385.695,5.673
                            386.300 C 5.772 387.157,6.038 387.427,6.876 387.524 C 7.707 387.620,7.980 387.893,8.076 388.724 C 8.163 389.477,8.463 389.837,9.075 389.925 C 9.621
                            390.002,9.998 390.379,10.075 390.925 C 10.163 391.537,10.523 391.837,11.276 391.924 C 12.107 392.020,12.380 392.293,12.476 393.124 C 12.573
                            393.962,12.843 394.228,13.700 394.327 C 14.305 394.396,14.800 394.624,14.800 394.832 C 14.800 395.406,17.276 396.797,18.300 396.799 C 18.916
                            396.800,19.200 397.039,19.200 397.557 C 19.200 398.471,19.949 398.800,22.033 398.800 C 23.159 398.800,23.600 398.969,23.600 399.400 C 23.600
                            399.932,43.533 400.000,200.600 400.000 C 357.667 400.000,377.600 399.932,377.600 399.400 C 377.600 399.032,377.974 398.800,378.567 398.800 C
                            380.059 398.800,380.800 398.387,380.800 397.557 C 380.800 397.039,381.084 396.800,381.700 396.799 C 382.724 396.797,385.200 395.406,385.200 394.832
                            C 385.200 394.624,385.695 394.396,386.300 394.327 C 387.157 394.228,387.427 393.962,387.524 393.124 C 387.620 392.293,387.893 392.020,388.724
                            391.924 C 389.477 391.837,389.837 391.537,389.925 390.925 C 390.002 390.379,390.379 390.002,390.925 389.925 C 391.537 389.837,391.837 389.477,
                            391.924 388.724 C 392.020 387.893,392.293 387.620,393.124 387.524 C 393.962 387.427,394.228 387.157,394.327 386.300 C 394.396 385.695,394.624
                            385.200,394.832 385.200 C 395.406 385.200,396.797 382.724,396.799 381.700 C 396.800 381.084,397.039 380.800,397.557 380.800 C 398.471 380.800,
                            398.800 380.051,398.800 377.967 C 398.800 376.841,398.969 376.400,399.400 376.400 C 399.932 376.400,400.000 356.533,400.000 200.000 C 400.000
                            43.467,399.932 23.600,399.400 23.600 C 398.969 23.600,398.800 23.159,398.800 22.033 C 398.800 19.949,398.471 19.200,397.557 19.200 C 397.039
                            19.200,396.800 18.916,396.799 18.300 C 396.797 17.276,395.406 14.800,394.832 14.800 C 394.624 14.800,394.396 14.305,394.327 13.700 C 394.228
                            12.843,393.962 12.573,393.124 12.476 C 392.293 12.380,392.020 12.107,391.924 11.276 C 391.837 10.523,391.537 10.163,390.925 10.075 C 390.379 9.998,
                            390.002 9.621,389.925 9.075 C 389.837 8.463,389.477 8.163,388.724 8.076 C 387.893 7.980,387.620 7.707,387.524 6.876 C 387.427 6.038,387.157 5.772,
                            386.300 5.673 C 385.695 5.604,385.200 5.376,385.200 5.168 C 385.200 4.594,382.724 3.203,381.700 3.201 C 381.084 3.200,380.800 2.961,380.800 2.443 C
                            380.800 1.613,380.059 1.200,378.567 1.200 C 377.974 1.200,377.600 0.968,377.600 0.600 C 377.600 0.068,357.667 0.000,200.600 0.000 C 43.533 0.000,
                            23.600 0.068,23.600 0.600 M115.244 93.593 C 120.577 93.877,122.764 94.155,124.244 94.738 C 125.320 95.162,127.526 95.714,129.147 95.965 C 130.767
                            96.216,132.437 96.606,132.858 96.831 C 133.279 97.056,135.251 97.596,137.241 98.030 C 139.230 98.464,141.250 99.065,141.729 99.365 C 142.208
                            99.665,143.320 100.137,144.200 100.414 C 145.080 100.690,146.229 101.250,146.754 101.658 C 147.279 102.066,147.909 102.403,148.154 102.407 C
                            148.747 102.416,154.470 105.260,155.215 105.915 C 155.537 106.199,157.150 107.308,158.800 108.380 C 161.919 110.408,167.097 114.913,169.822 117.971
                            C 170.690 118.945,171.760 120.146,172.200 120.640 C 173.643 122.260,174.736 123.840,175.448 125.332 C 175.833 126.139,176.281 126.800,176.443
                            126.800 C 176.605 126.800,176.936 127.401,177.178 128.135 C 177.421 128.869,177.958 129.833,178.372 130.278 C 179.226 131.194,181.272 136.908,
                            182.140 140.800 C 182.459 142.230,183.039 144.210,183.428 145.200 C 184.615 148.217,184.482 166.886,183.250 170.200 C 182.759 171.520,182.107
                            173.984,181.802 175.675 C 181.496 177.367,180.990 179.257,180.676 179.875 C 180.363 180.494,179.992 181.630,179.852 182.400 C 179.712 183.170,
                            179.203 184.430,178.721 185.200 C 178.239 185.970,177.108 188.040,176.208 189.800 C 175.308 191.560,173.858 194.059,172.986 195.354 C 172.114
                            196.649,171.220 197.999,171.000 198.354 C 170.780 198.709,169.863 199.900,168.962 201.000 C 168.061 202.100,166.471 204.051,165.428 205.336 C
                            163.567 207.629,162.602 208.597,159.400 211.383 C 155.312 214.940,152.427 217.185,151.171 217.787 C 148.789 218.927,147.142 219.915,146.257 220.735
                            C 145.786 221.171,144.606 221.739,143.636 221.997 C 142.666 222.254,141.494 222.713,141.031 223.017 C 140.568 223.320,139.202 223.775,137.995
                            224.028 C 136.788 224.280,135.209 224.846,134.488 225.284 C 133.726 225.746,131.878 226.237,130.088 226.453 C 128.389 226.658,126.072 227.089,
                            124.938 227.413 C 122.479 228.113,106.258 228.252,103.997 227.592 C 103.229 227.367,100.890 226.910,98.800 226.576 C 96.672 226.236,94.560 225.654,
                            94.000 225.253 C 93.450 224.860,92.417 224.337,91.704 224.091 C 84.969 221.770,84.138 212.390,90.581 211.424 C 91.666 211.261,93.419 210.787,94.477
                            210.370 C 95.560 209.943,98.420 209.423,101.019 209.181 C 103.558 208.945,106.348 208.500,107.219 208.193 C 108.089 207.886,109.920 207.432,111.286
                            207.184 C 112.652 206.937,114.497 206.320,115.385 205.814 C 116.273 205.308,117.526 204.772,118.168 204.623 C 118.811 204.473,119.780 204.002,
                            120.322 203.575 C 120.864 203.149,121.529 202.800,121.799 202.800 C 123.472 202.800,131.887 194.381,133.994 190.600 C 134.484 189.720,135.025
                            188.820,135.196 188.600 C 135.368 188.380,135.637 187.596,135.795 186.857 C 135.953 186.118,136.514 184.878,137.041 184.101 C 137.569 183.324,
                            138.000 182.429,138.000 182.111 C 138.000 181.794,138.442 180.244,138.982 178.667 C 141.499 171.318,141.497 147.914,138.979 142.592 C 138.440
                            141.454,138.000 140.340,138.000 140.116 C 138.000 139.893,137.460 139.031,136.800 138.200 C 136.140 137.369,135.600 136.488,135.600 136.242 C
                            135.600 135.226,130.781 130.250,127.000 127.361 C 125.466 126.189,121.824 124.000,121.408 124.000 C 121.177 124.000,120.339 123.652,119.546 123.227
                            C 118.753 122.802,116.955 122.247,115.552 121.994 C 114.148 121.741,112.439 121.189,111.753 120.767 C 107.238 117.991,77.122 118.011,71.011 120.795
                            C 70.036 121.239,67.842 121.797,66.135 122.034 C 64.429 122.272,62.576 122.700,62.017 122.987 C 61.457 123.274,59.976 123.720,58.724 123.978 C
                            57.473 124.236,56.018 124.785,55.493 125.199 C 54.967 125.612,54.011 126.077,53.368 126.232 C 52.726 126.387,51.391 126.939,50.403 127.457 C 49.415
                            127.976,48.445 128.400,48.248 128.400 C 47.927 128.400,42.953 130.812,40.400 132.205 C 39.850 132.505,37.690 133.592,35.600 134.619 C 33.510
                            135.646,31.331 136.737,30.758 137.043 C 27.431 138.823,19.200 138.007,19.200 135.897 C 19.200 134.413,20.838 129.560,21.414 129.339 C 21.725
                            129.220,22.224 128.633,22.522 128.036 C 22.820 127.439,23.859 125.905,24.832 124.627 C 25.804 123.349,26.782 122.010,27.004 121.652 C 27.922
                            120.169,34.208 114.555,36.200 113.438 C 37.796 112.544,39.998 110.939,40.553 110.266 C 40.799 109.968,41.630 109.486,42.400 109.196 C 43.170
                            108.906,44.070 108.450,44.400 108.183 C 44.730 107.917,45.810 107.346,46.800 106.914 C 47.790 106.483,48.847 105.831,49.149 105.465 C 49.451
                            105.099,49.919 104.800,50.189 104.800 C 50.460 104.800,51.488 104.371,52.475 103.846 C 53.461 103.322,54.830 102.769,55.515 102.619 C 56.201
                            102.468,57.182 102.014,57.695 101.611 C 58.208 101.207,59.432 100.663,60.414 100.401 C 61.396 100.140,62.490 99.667,62.844 99.351 C 63.198 99.035,
                            64.998 98.497,66.844 98.155 C 68.690 97.812,70.593 97.281,71.074 96.974 C 71.555 96.667,73.265 96.213,74.874 95.966 C 76.483 95.719,78.610 95.150,
                            79.600 94.702 C 82.567 93.358,100.390 92.804,115.244 93.593 M344.200 94.404 C 348.820 94.620,357.820 94.974,364.200 95.193 C 379.076 95.702,378.839
                            95.665,380.154 97.674 C 381.597 99.879,380.647 105.397,378.411 107.794 C 377.997 108.237,377.533 109.140,377.378 109.800 C 377.224 110.460,376.775
                            111.540,376.382 112.200 C 375.989 112.860,375.542 114.120,375.388 115.000 C 374.673 119.101,370.507 123.139,365.526 124.560 C 360.473 126.001,
                            361.468 125.976,327.600 125.503 C 288.772 124.960,291.168 124.639,290.677 130.439 C 290.538 132.093,290.070 134.245,289.638 135.223 C 289.206
                            136.200,288.726 137.990,288.571 139.200 C 288.416 140.410,287.955 142.259,287.547 143.309 C 287.138 144.359,286.610 146.519,286.373 148.109 C
                            286.136 149.699,285.505 152.290,284.971 153.867 C 284.437 155.444,284.000 157.157,284.000 157.673 C 284.000 158.189,283.636 159.291,283.191 160.120
                            C 282.747 160.950,282.128 162.837,281.816 164.315 C 281.504 165.792,280.987 167.630,280.668 168.400 C 280.350 169.170,279.960 170.790,279.802
                            172.000 C 279.645 173.210,279.177 174.759,278.762 175.441 C 277.190 178.027,277.579 178.106,294.728 178.670 C 329.332 179.808,331.947 179.972,
                            332.852 181.062 C 333.847 182.262,333.101 190.158,331.805 192.136 C 331.48 192.623,330.971 194.231,330.661 195.711 C 330.351 197.190,329.917
                            198.625,329.697 198.900 C 329.477 199.175,329.002 200.390,328.642 201.600 C 327.252 206.272,324.099 207.915,317.427 207.442 C 303.350 206.443,
                            272.276 206.010,270.814 206.792 C 269.686 207.396,269.236 208.411,268.584 211.820 C 268.269 213.465,267.734 215.234,267.395 215.751 C 267.056
                            216.269,266.506 218.254,266.173 220.164 C 265.840 222.073,265.385 224.114,265.162 224.700 C 264.939 225.285,264.512 227.510,264.213 229.644 C
                            263.913 231.778,263.391 233.947,263.052 234.465 C 262.712 234.983,262.163 237.025,261.831 239.003 C 261.499 240.982,260.963 243.446,260.639 244.479
                            C 260.316 245.513,259.838 248.566,259.578 251.265 C 259.317 253.963,258.853 256.882,258.546 257.752 C 258.239 258.622,257.718 261.910,257.387
                            265.059 C 257.056 268.209,256.633 271.194,256.447 271.693 C 255.811 273.400,255.555 276.377,255.229 285.885 C 254.816 297.952,254.454 298.849,
                            248.400 302.808 C 247.410 303.456,246.346 303.989,246.035 303.993 C 245.724 303.997,244.680 304.463,243.715 305.029 C 240.676 306.810,223.217
                            308.009,220.002 306.658 C 217.889 305.769,216.095 303.134,215.794 300.476 C 215.652 299.224,215.259 296.580,214.921 294.600 C 214.181 290.265,
                            214.066 276.200,214.741 272.600 C 214.989 271.280,215.452 267.230,215.771 263.600 C 216.093 259.938,216.620 256.358,216.956 255.559 C 217.289
                            254.767,217.841 251.851,218.182 249.081 C 218.524 246.310,218.981 243.576,219.198 243.004 C 219.416 242.432,219.854 239.978,220.172 237.550 C
                            220.497 235.070,221.034 232.702,221.399 232.146 C 221.756 231.601,222.311 229.648,222.633 227.806 C 222.954 225.964,223.463 223.859,223.764 223.128
                            C 224.065 222.398,224.513 220.263,224.759 218.385 C 225.006 216.506,225.387 214.346,225.606 213.585 C 226.319 211.112,223.971 210.558,218.279
                            211.857 C 215.201 212.559,197.196 212.918,196.560 212.290 C 195.816 211.554,196.311 208.156,197.506 205.800 C 200.116 200.657,208.872 193.611,
                            215.200 191.564 C 215.970 191.315,217.050 190.816,217.600 190.456 C 219.003 189.538,223.199 188.091,227.162 187.160 C 233.077 185.769,234.887
                            183.589,235.797 176.756 C 235.955 175.570,236.442 174.011,236.880 173.291 C 237.318 172.571,237.918 171.041,238.213 169.891 C 238.508 168.741,
                            239.115 166.810,239.561 165.600 C 240.008 164.390,240.382 162.950,240.391 162.400 C 240.400 161.850,240.836 160.480,241.360 159.355 C 241.884
                            158.230,242.441 156.700,242.599 155.955 C 242.757 155.210,243.222 154.047,243.632 153.370 C 244.043 152.694,244.585 151.164,244.838 149.970 C
                            245.091 148.777,245.636 147.132,246.049 146.316 C 246.462 145.500,246.801 144.510,246.801 144.116 C 246.802 143.722,247.432 142.150,248.201 140.623
                            C 248.971 139.096,249.600 137.603,249.600 137.307 C 249.600 137.011,249.936 136.100,250.346 135.284 C 250.756 134.468,251.314 132.855,251.586
                            131.700 C 251.857 130.545,252.213 129.600,252.376 129.600 C 252.538 129.600,252.887 129.128,253.150 128.551 C 253.619 127.521,252.929 125.599,
                            252.091 125.601 C 250.100 125.606,240.146 126.924,238.965 127.339 C 238.104 127.641,236.202 128.096,234.737 128.349 C 232.172 128.794,230.399
                            129.455,224.800 132.054 C 220.637 133.987,218.286 135.263,217.000 136.289 C 216.340 136.815,214.810 137.894,213.600 138.687 C 212.390 139.479,
                            211.040 140.465,210.600 140.877 C 210.160 141.290,208.290 143.068,206.444 144.829 C 195.897 154.890,193.542 155.538,191.342 148.982 C 190.977
                            147.892,190.435 146.645,190.139 146.211 C 189.191 144.823,189.443 139.055,190.593 135.800 C 191.138 134.260,191.587 132.680,191.592 132.289 C
                            191.604 131.253,194.286 125.760,195.318 124.657 C 195.803 124.139,196.560 123.221,197.000 122.617 C 198.871 120.052,204.906 114.643,207.121 113.547
                            C 208.044 113.090,208.800 112.583,208.800 112.419 C 208.800 112.255,209.520 111.797,210.400 111.400 C 211.280 111.003,212.000 110.541,212.000
                            110.372 C 212.000 110.204,212.855 109.751,213.900 109.365 C 214.945 108.980,216.070 108.448,216.400 108.183 C 216.730 107.918,217.664 107.488,
                            218.475 107.228 C 219.286 106.967,220.370 106.424,220.884 106.020 C 221.398 105.616,222.745 105.010,223.878 104.673 C 225.010 104.337,226.343
                            103.844,226.839 103.579 C 227.336 103.313,228.784 102.853,230.058 102.556 C 231.332 102.258,233.053 101.652,233.881 101.208 C 234.710 100.763,
                            235.721 100.400,236.127 100.400 C 236.533 100.400,238.156 99.963,239.733 99.430 C 241.310 98.896,244.310 98.246,246.400 97.987 C 248.490 97.727,
                            250.931 97.268,251.825 96.967 C 252.719 96.665,255.959 96.149,259.025 95.819 C 262.091 95.489,265.320 95.010,266.200 94.755 C 267.080 94.500,
                            269.240 94.147,271.000 93.971 C 275.171 93.553,333.318 93.897,344.200 94.404 M80.369 134.400 C 81.949 134.400,83.431 141.893,83.020 147.800 C
                            81.879 164.194,81.123 171.955,80.580 172.832 C 80.480 172.994,80.142 175.528,79.829 178.463 C 79.474 181.794,78.963 184.477,78.469 185.600 C 78.034
                            186.590,77.557 188.570,77.410 190.000 C 77.262 191.430,76.805 193.860,76.394 195.400 C 75.983 196.940,75.439 199.997,75.185 202.193 C 74.932
                            204.390,74.460 206.696,74.138 207.319 C 73.816 207.942,73.298 210.027,72.987 211.953 C 72.675 213.878,72.161 216.074,71.845 216.832 C 71.528
                            217.589,71.052 220.097,70.786 222.405 C 70.521 224.712,69.965 227.940,69.552 229.577 C 69.039 231.603,68.670 235.242,68.394 240.977 C 68.172
                            245.610,67.815 250.300,67.602 251.400 C 67.086 254.069,66.492 263.498,66.191 273.800 C 65.640 292.735,64.959 297.323,62.294 300.100 C 61.502
                            300.925,60.703 301.600,60.520 301.600 C 60.336 301.600,59.509 302.060,58.683 302.621 C 57.856 303.183,56.428 303.908,55.510 304.232 C 54.591
                            304.556,53.548 305.085,53.190 305.409 C 52.387 306.136,42.537 307.187,36.124 307.229 C 29.678 307.272,28.506 306.698,26.502 302.523 L 25.004
                            299.400 25.002 281.200 C 25.000 264.879,25.073 262.773,25.708 260.800 C 26.098 259.590,26.677 256.251,26.995 253.380 C 27.313 250.509,27.834
                            247.536,28.153 246.774 C 28.472 246.011,28.941 243.500,29.195 241.193 C 29.449 238.887,29.918 236.179,30.236 235.176 C 30.554 234.172,31.06
                            231.806,31.370 229.918 C 31.675 228.030,32.201 226.061,32.538 225.543 C 32.874 225.024,33.365 223.340,33.629 221.800 C 33.892 220.260,34.427
                            217.993,34.817 216.762 C 35.207 215.532,35.656 213.462,35.815 212.162 C 35.973 210.863,36.512 209.080,37.013 208.200 C 37.514 207.320,38.050
                            205.814,38.205 204.854 C 38.359 203.893,38.814 202.363,39.216 201.454 C 39.617 200.544,40.159 198.540,40.420 197.000 C 40.681 195.460,41.134
                            193.927,41.425 193.594 C 41.716 193.260,42.154 192.096,42.399 191.006 C 42.643 189.917,43.179 188.480,43.591 187.813 C 44.003 187.146,44.61
                            185.520,44.949 184.200 C 45.845 180.670,47.537 175.936,48.158 175.222 C 48.455 174.880,48.926 173.880,49.204 173.000 C 49.481 172.120,50.029
                            170.762,50.421 169.981 C 50.813 169.201,51.256 167.908,51.406 167.108 C 51.556 166.307,52.015 165.349,52.425 164.978 C 52.834 164.607,53.379
                            163.650,53.636 162.852 C 53.892 162.053,54.344 161.121,54.640 160.780 C 54.936 160.439,55.431 159.445,55.739 158.572 C 56.048 157.698,56.727
                            156.332,57.250 155.537 C 57.772 154.742,58.510 153.576,58.889 152.946 C 62.626 146.727,66.139 142.221,69.362 139.513 C 70.221 138.791,71.331
                            137.784,71.829 137.277 C 72.850 136.236,78.315 133.951,79.133 134.223 C 79.426 134.320,79.982 134.400,80.369 134.400"/>
  </g>
</svg>
